# xmcd
#
# Track frame offsets: 
#        150
#        34218
#        55680
#        105952
#        149855
#        192512
#
# Disc length: 3123 seconds
#
# Revision: 0
# Processed by: cddbd v1.5.2PL0 Copyright (c) Steve Scherf et al.
# Submitted via: ExactAudioCopy v0.95b4
#
DISCID=540c3106
DTITLE=Eric Clapton - 1979-12-01 - On Tour '79 - CD2
DYEAR=1979
DGENRE=Blues
TTITLE0=Knockin' On Heaven's Door
TTITLE1=Setting Me Up
TTITLE2=Rambling On My Mind and Have You Ever Loved A Woman
TTITLE3=Cocaine
TTITLE4=Layla
TTITLE5=Further On Up The Road
EXTD=
EXTT0=
EXTT1=
EXTT2=
EXTT3=
EXTT4=
EXTT5=
PLAYORDER=
